<svg width="48" height="48" viewBox="0 0 48 48" fill="none" xmlns="http://www.w3.org/2000/svg">
<g clip-path="url(#clip0_12271_3046)">
<path opacity="0.24" d="M16.8094 8.74555L13.0479 6.57449C11.2506 5.5327 9 6.83692 9 8.91256V38.6076C9 40.6832 11.2506 41.9875 13.0479 40.9457L16.8094 38.7746C17.6445 38.2895 18.1614 37.3988 18.1614 36.4286V11.0916C18.1614 10.1213 17.6445 9.23066 16.8094 8.74555Z" fill="#00D2B1"/>
<path d="M24.0304 34.6633L27.7841 32.5002C28.6191 32.0151 29.136 31.1244 29.136 30.1542V17.4937C29.136 16.5234 28.6191 15.6328 27.7841 15.1476L24.0304 12.9845C22.2252 11.9427 19.9746 13.247 19.9746 15.3306V32.3332C19.9746 34.4089 22.2252 35.7051 24.0304 34.6633Z" fill="#00D2B1"/>
<path d="M38.7587 21.4857L35.005 19.3146C33.1998 18.2728 30.9492 19.577 30.9492 21.6606V28.3329C30.9492 29.3747 32.0785 30.0268 32.9771 29.5019L38.7587 26.1618C40.5639 25.12 40.5639 22.5275 38.7587 21.4857Z" fill="#00D2B1"/>
<path d="M11.0279 29.479L17.4854 25.7492C17.9069 25.5107 18.1614 25.0574 18.1614 24.5802V11.1323C18.1614 10.1621 17.6445 9.27142 16.8094 8.78631L13.0558 6.62321C11.2506 5.58141 9 6.88564 9 8.96922V28.31C9 29.3438 10.1293 29.9959 11.0279 29.479Z" fill="#00D2B1"/>
</g>
<defs>
<clipPath id="clip0_12271_3046">
<rect width="32" height="36" fill="white" transform="translate(9 6)"/>
</clipPath>
</defs>
</svg>
